<svg width="16" height="16" viewBox="0 0 16 16" fill="none" xmlns="http://www.w3.org/2000/svg">
<g clip-path="url(#clip0_475_4156)">
<path d="M9.97647 4.90012C10.1183 4.758 10.3086 4.67481 10.5092 4.66724C10.7098 4.65967 10.9059 4.72828 11.058 4.85931C11.2101 4.99033 11.307 5.17405 11.3292 5.37357C11.3514 5.57309 11.2973 5.77363 11.1778 5.93491L11.1008 6.02442L6.0235 11.1008C5.8814 11.2415 5.69149 11.3235 5.49162 11.3304C5.29176 11.3373 5.09664 11.2686 4.94517 11.1381C4.7937 11.0075 4.69701 10.8246 4.67439 10.6259C4.65176 10.4272 4.70487 10.2273 4.82311 10.066L4.90009 9.9765L9.97647 4.90012Z" fill="#89878C"/>
<path d="M4.90022 4.90002C5.03473 4.76543 5.21311 4.68362 5.40287 4.66949C5.59263 4.65536 5.78115 4.70985 5.93412 4.82304L6.02363 4.90002L11.1009 9.97819C11.2425 10.1199 11.3253 10.31 11.3326 10.5102C11.34 10.7104 11.2714 10.906 11.1406 11.0577C11.0098 11.2095 10.8265 11.3062 10.6274 11.3284C10.4282 11.3507 10.2281 11.2968 10.067 11.1777L9.9775 11.1007L4.90022 6.02254C4.75143 5.87365 4.66785 5.67177 4.66785 5.46128C4.66785 5.25079 4.75143 5.04891 4.90022 4.90002Z" fill="#89878C"/>
</g>
<defs>
<clipPath id="clip0_475_4156">
<rect width="16" height="16" fill="white"/>
</clipPath>
</defs>
</svg>
