<svg width="24" height="24" viewBox="0 0 24 24"  fill="#89878C" xmlns="http://www.w3.org/2000/svg">
<g clip-path="url(#clip0_486_2795)">
<path d="M6.18085 8.80931C6.2843 8.70273 6.42316 8.63767 6.57126 8.62639C6.71936 8.61512 6.86646 8.65841 6.98485 8.74811L7.05325 8.80931L11.9997 13.8541L16.9461 8.81411C17.0495 8.70753 17.1884 8.64247 17.3365 8.63119C17.4846 8.61992 17.6317 8.66321 17.7501 8.75291L17.8197 8.81411C17.9243 8.92191 17.9877 9.06313 17.9987 9.213C18.0097 9.36287 17.9675 9.51181 17.8797 9.63371L17.8197 9.70451L12.4365 15.1897C12.3335 15.2968 12.1948 15.3626 12.0467 15.3745C11.8986 15.3864 11.7513 15.3438 11.6325 15.2545L11.5629 15.1933L6.18085 9.69971C6.06488 9.58053 6 9.4208 6 9.25451C6 9.08822 6.06488 8.92849 6.18085 8.80931Z"/>
</g>
<defs>
<clipPath id="clip0_486_2795">
<rect width="24" height="24" fill="none"/>
</clipPath>
</defs>
</svg>
