<svg width="24" height="24" viewBox="0 0 24 24" fill="none" xmlns="http://www.w3.org/2000/svg">
<g clip-path="url(#clip0_491_3111)">
<path d="M21 18.075C21 18.6535 20.8284 19.219 20.507 19.7C20.1856 20.1811 19.7288 20.556 19.1943 20.7773C18.6599 20.9987 18.0718 21.0567 17.5044 20.9438C16.937 20.8309 16.4158 20.5524 16.0067 20.1433C15.5976 19.7342 15.3191 19.213 15.2062 18.6456C15.0933 18.0782 15.1513 17.4901 15.3726 16.9556C15.594 16.4212 15.9689 15.9643 16.45 15.6429C16.931 15.3215 17.4965 15.15 18.075 15.15C18.8508 15.15 19.5947 15.4582 20.1433 16.0067C20.6918 16.5553 21 17.2992 21 18.075Z" fill="#474747"/>
<path d="M21 5.7C21 6.23401 20.8417 6.75603 20.545 7.20004C20.2483 7.64405 19.8266 7.99012 19.3333 8.19447C18.8399 8.39883 18.297 8.4523 17.7733 8.34812C17.2495 8.24394 16.7684 7.98679 16.3908 7.60919C16.0132 7.23159 15.7561 6.75049 15.6519 6.22674C15.5477 5.703 15.6012 5.16012 15.8055 4.66675C16.0099 4.17339 16.356 3.75171 16.8 3.45503C17.244 3.15835 17.766 3 18.3 3C19.0161 3 19.7028 3.28446 20.2092 3.79081C20.7155 4.29716 21 4.98392 21 5.7Z" fill="#474747"/>
<path d="M8.4 5.7C8.4 6.23401 8.24165 6.75603 7.94497 7.20004C7.64829 7.64405 7.22661 7.99012 6.73325 8.19447C6.23989 8.39883 5.69701 8.4523 5.17326 8.34812C4.64951 8.24394 4.16841 7.98679 3.79081 7.60919C3.41321 7.23159 3.15606 6.75049 3.05188 6.22674C2.9477 5.703 3.00117 5.16012 3.20553 4.66675C3.40988 4.17339 3.75595 3.75171 4.19996 3.45503C4.64397 3.15835 5.16599 3 5.7 3C6.41609 3 7.10284 3.28446 7.60919 3.79081C8.11554 4.29716 8.4 4.98392 8.4 5.7Z" fill="#474747"/>
<path d="M5.547 8.41802C5.97263 9.64007 6.76787 10.6994 7.82252 11.4493C8.87716 12.1992 10.139 12.6024 11.433 12.603H11.46L14.637 12.594C15.3083 12.5899 15.9623 12.8072 16.4976 13.2124C17.0329 13.6175 17.4196 14.1878 17.598 14.835V16.5C17.598 16.6826 17.6705 16.8577 17.7997 16.9869C17.9288 17.116 18.1039 17.1885 18.2865 17.1885C18.4691 17.1885 18.6442 17.116 18.7733 16.9869C18.9025 16.8577 18.975 16.6826 18.975 16.5V6.38402C18.975 6.29397 18.9572 6.2048 18.9227 6.12164C18.8881 6.03847 18.8375 5.96295 18.7737 5.8994C18.7099 5.83585 18.6342 5.78552 18.5509 5.75131C18.4676 5.71709 18.3784 5.69966 18.2883 5.70002C18.1059 5.69953 17.9307 5.77116 17.8009 5.89928C17.6711 6.0274 17.5972 6.20164 17.5953 6.38402V12.342C16.7835 11.6151 15.733 11.2116 14.6433 11.208H14.6253L11.4483 11.217H11.4303C10.4228 11.2173 9.44031 10.9038 8.61931 10.3199C7.79831 9.73597 7.17964 8.91078 6.8493 7.95902C6.79923 7.82547 6.70995 7.71017 6.59319 7.62826C6.47642 7.54635 6.33763 7.50164 6.195 7.50002C6.11886 7.5032 6.04334 7.51529 5.97 7.53602C5.79702 7.59698 5.6553 7.72411 5.57599 7.88949C5.49668 8.05486 5.48625 8.24496 5.547 8.41802Z" fill="#474747"/>
</g>
<defs>
<clipPath id="clip0_491_3111">
<rect width="24" height="24" fill="white"/>
</clipPath>
</defs>
</svg>
