<svg width="24" height="24" viewBox="0 0 24 24" fill="none" xmlns="http://www.w3.org/2000/svg">
<g clip-path="url(#clip0_491_3131)">
<path d="M19.3846 20.8878H4.61538C4.45251 20.8867 4.2966 20.8216 4.18143 20.7064C4.06626 20.5912 4.00108 20.4353 4 20.2724C4.00108 20.1095 4.06626 19.9536 4.18143 19.8385C4.2966 19.7233 4.45251 19.6581 4.61538 19.657H19.3846C19.5475 19.6581 19.7034 19.7233 19.8186 19.8385C19.9337 19.9536 19.9989 20.1095 20 20.2724C19.9989 20.4353 19.9337 20.5912 19.8186 20.7064C19.7034 20.8216 19.5475 20.8867 19.3846 20.8878Z" fill="#89878C"/>
<path d="M6.74872 9.09705H5.4359C5.21829 9.09705 5.00959 9.18349 4.85571 9.33737C4.70183 9.49124 4.61539 9.69995 4.61539 9.91756V16.9904C4.61539 17.208 4.70183 17.4167 4.85571 17.5706C5.00959 17.7244 5.21829 17.8109 5.4359 17.8109H6.74872C6.96633 17.8109 7.17503 17.7244 7.32891 17.5706C7.48279 17.4167 7.56923 17.208 7.56923 16.9904V9.91756C7.56923 9.69995 7.48279 9.49124 7.32891 9.33737C7.17503 9.18349 6.96633 9.09705 6.74872 9.09705Z" fill="#89878C"/>
<path d="M12.6564 6.47961H11.3436C11.126 6.47961 10.9173 6.56606 10.7634 6.71994C10.6095 6.87381 10.5231 7.08251 10.5231 7.30013V16.9904C10.5231 17.208 10.6095 17.4167 10.7634 17.5706C10.9173 17.7245 11.126 17.8109 11.3436 17.8109H12.6564C12.874 17.8109 13.0827 17.7245 13.2366 17.5706C13.3905 17.4167 13.4769 17.208 13.4769 16.9904V7.30013C13.4769 7.08251 13.3905 6.87381 13.2366 6.71994C13.0827 6.56606 12.874 6.47961 12.6564 6.47961Z" fill="#89878C"/>
<path d="M18.5641 3.86218H17.2513C17.0337 3.86218 16.825 3.94863 16.6711 4.10251C16.5172 4.25638 16.4308 4.46508 16.4308 4.6827V16.9904C16.4308 17.208 16.5172 17.4167 16.6711 17.5706C16.825 17.7245 17.0337 17.8109 17.2513 17.8109H18.5641C18.7817 17.8109 18.9904 17.7245 19.1443 17.5706C19.2982 17.4167 19.3846 17.208 19.3846 16.9904V4.6827C19.3846 4.46508 19.2982 4.25638 19.1443 4.10251C18.9904 3.94863 18.7817 3.86218 18.5641 3.86218Z" fill="#89878C"/>
</g>
<defs>
<clipPath id="clip0_491_3131">
<rect width="24" height="24" fill="white"/>
</clipPath>
</defs>
</svg>
