<svg width="24" height="24" viewBox="0 0 24 24" fill="none" xmlns="http://www.w3.org/2000/svg">
<g clip-path="url(#clip0_491_3109)">
<path d="M15.417 3.19655C15.3362 3.11435 15.233 3.05772 15.1202 3.03372C15.0074 3.00972 14.8901 3.01941 14.7827 3.06157C14.6754 3.10373 14.5829 3.17651 14.5166 3.27086C14.4503 3.3652 14.4132 3.47695 14.4099 3.59221V6.73051C14.4231 7.37562 14.6902 7.9895 15.1531 8.43897C15.6161 8.88845 16.2376 9.13726 16.8828 9.13145C17.737 9.14044 18.924 9.14044 19.9402 9.14044C20.0529 9.14347 20.164 9.11284 20.2592 9.05246C20.3545 8.99208 20.4296 8.90468 20.4749 8.80143C20.5203 8.69817 20.5338 8.58375 20.5139 8.47275C20.4939 8.36176 20.4413 8.25924 20.3628 8.17827C19.0679 6.87439 16.7479 4.52741 15.417 3.19655Z" fill="#474747"/>
<path d="M19.6434 10.3724H17.0447C16.0196 10.371 15.0369 9.96316 14.3121 9.23832C13.5873 8.51349 13.1794 7.53082 13.178 6.50575V3.90698C13.178 3.6685 13.0833 3.43977 12.9146 3.27114C12.746 3.1025 12.5173 3.00776 12.2788 3.00776H8.46606C7.79831 2.96953 7.13001 3.0729 6.505 3.31108C5.88 3.54927 5.31241 3.91689 4.83946 4.38984C4.36651 4.86279 3.99888 5.43038 3.7607 6.05539C3.52251 6.68039 3.41914 7.34869 3.45737 8.01645V15.9836C3.41914 16.6514 3.52251 17.3197 3.7607 17.9447C3.99888 18.5697 4.36651 19.1373 4.83946 19.6102C5.31241 20.0832 5.88 20.4508 6.505 20.689C7.13001 20.9271 7.79831 21.0305 8.46606 20.9923H15.534C16.2017 21.0305 16.87 20.9271 17.495 20.689C18.12 20.4508 18.6876 20.0832 19.1606 19.6102C19.6335 19.1373 20.0012 18.5697 20.2393 17.9447C20.4775 17.3197 20.5809 16.6514 20.5427 15.9836V11.2716C20.5427 11.0332 20.4479 10.8044 20.2793 10.6358C20.1107 10.4672 19.8819 10.3724 19.6434 10.3724ZM11.5504 17.1706H7.95351C7.77464 17.1706 7.6031 17.0995 7.47662 16.973C7.35014 16.8466 7.27909 16.675 7.27909 16.4962C7.27909 16.3173 7.35014 16.1457 7.47662 16.0193C7.6031 15.8928 7.77464 15.8217 7.95351 15.8217H11.5504C11.7293 15.8217 11.9008 15.8928 12.0273 16.0193C12.1538 16.1457 12.2248 16.3173 12.2248 16.4962C12.2248 16.675 12.1538 16.8466 12.0273 16.973C11.9008 17.0995 11.7293 17.1706 11.5504 17.1706ZM13.3489 13.5737H7.95351C7.77464 13.5737 7.6031 13.5026 7.47662 13.3761C7.35014 13.2497 7.27909 13.0781 7.27909 12.8992C7.27909 12.7204 7.35014 12.5488 7.47662 12.4224C7.6031 12.2959 7.77464 12.2248 7.95351 12.2248H13.3489C13.5277 12.2248 13.6993 12.2959 13.8257 12.4224C13.9522 12.5488 14.0233 12.7204 14.0233 12.8992C14.0233 13.0781 13.9522 13.2497 13.8257 13.3761C13.6993 13.5026 13.5277 13.5737 13.3489 13.5737Z" fill="#474747"/>
</g>
<defs>
<clipPath id="clip0_491_3109">
<rect width="24" height="24" fill="white"/>
</clipPath>
</defs>
</svg>
