<svg width="40" height="40" viewBox="0 0 40 40" fill="none" xmlns="http://www.w3.org/2000/svg">
<g clip-path="url(#clip0_491_3112)">
<path d="M14.8765 14.0999C10.6665 11.7515 9.02654 13.5865 8.65488 16.8482C7.68821 10.5732 9.66321 8.20152 13.1749 9.79319C14.6923 10.4886 16.0968 11.4077 17.3415 12.5199C18.068 13.1541 19.004 13.4962 19.9682 13.4799" fill="#E1DFEB"/>
<path d="M19.95 13.48C20.9219 13.4655 21.8581 13.1118 22.5967 12.48C23.8708 11.3907 25.292 10.4862 26.8183 9.7933C30.3367 8.2033 32.3183 10.575 31.345 16.8483C30.9067 17.1583 30.4767 17.4733 30.0233 17.8183C30.065 16.83 29.9283 15.6833 29.9133 14.8183C29.8633 12.01 25.9133 13.0283 23.8783 15.3933C22.695 16.7666 24.3067 18.645 26.1483 19.8933C26.476 19.9867 26.8103 20.0547 27.1483 20.0966C26.405 20.705 25.5483 21.4116 24.53 22.2633C23.2583 21.0566 21.6167 19.5166 19.9833 18.0716" fill="#E1DFEB"/>
<path d="M20.0017 13.4817C19.0422 13.4602 18.1199 13.1068 17.3917 12.4817C16.1198 11.3927 14.7008 10.4883 13.1767 9.79502C9.66333 8.20335 7.68667 10.575 8.655 16.85C9.09333 17.16 9.52167 17.475 9.975 17.8184C9.93333 16.83 10.0767 15.685 10.0767 14.815C10.1333 12.0134 14.0767 13.0317 16.11 15.395C17.2933 16.7684 15.6833 18.6467 13.845 19.895C13.5173 19.9882 13.183 20.0561 12.845 20.0984C13.5867 20.7084 14.4417 21.4134 15.4583 22.265C16.7367 21.0634 18.3733 19.5217 20.0083 18.075C21.6433 16.6284 20.0017 13.4817 20.0017 13.4817Z" fill="#E1DFEB"/>
<path d="M21.5434 26.21C22.332 28.0173 23.6522 29.5415 25.3284 30.58C29.3434 32.565 31.675 29.4783 30.6617 26.16C30.2593 24.9674 29.6251 23.866 28.7956 22.9193C27.9662 21.9725 26.9577 21.1991 25.8284 20.6433C25.1617 20.3717 20.805 24.4367 21.5434 26.21ZM23.3667 23.27C23.555 22.2067 24.0684 22.295 24.3517 22.4167C25.6694 23.0083 26.7385 24.0425 27.3734 25.34C28.0717 27.0833 26.8734 28.1733 25.31 27.1617C24.6373 26.7782 24.0935 26.2037 23.7475 25.5109C23.4016 24.8181 23.269 24.0382 23.3667 23.27Z" fill="#E1DFEB"/>
<path d="M14.1733 20.6433C13.044 21.1991 12.0355 21.9725 11.2061 22.9193C10.3766 23.866 9.74242 24.9674 9.34001 26.16C8.32168 29.4767 10.6533 32.5633 14.6733 30.58C16.3495 29.5415 17.6697 28.0173 18.4583 26.21C19.1967 24.4367 14.84 20.3717 14.1733 20.6433ZM14.6933 27.1617C13.13 28.1783 11.9317 27.0833 12.63 25.34C13.2644 24.0428 14.3329 23.0086 15.65 22.4167C15.94 22.2967 16.44 22.2083 16.635 23.27C16.7327 24.0382 16.6001 24.8181 16.2542 25.5109C15.9082 26.2037 15.3661 26.7782 14.6933 27.1617Z" fill="#E1DFEB"/>
<path d="M26.825 9.79499C34.4917 7.13832 29.9667 20.745 19.9917 20.745C10.0167 20.745 5.50168 7.12832 13.175 9.79499C4.81168 5.44999 2.64501 16.3367 12.675 22.295C15.6583 24.0583 18.6583 27.3167 14.6733 30.58C17.1933 29.325 17.8183 27.0583 20.0067 27.0583C22.195 27.0583 22.8133 29.3267 25.34 30.58C21.36 27.3167 24.3617 24.0583 27.34 22.2883C37.3567 16.335 35.1883 5.44832 26.825 9.79499Z" fill="white"/>
</g>
<defs>
<clipPath id="clip0_491_3112">
<rect width="40" height="40" fill="white"/>
</clipPath>
</defs>
</svg>
