<svg width="24" height="24" viewBox="0 0 24 24" fill="none" xmlns="http://www.w3.org/2000/svg">
<g clip-path="url(#clip0_491_3106)">
<path d="M20 9.216V5.584C20 4.456 19.488 4 18.216 4H14.984C13.712 4 13.2 4.456 13.2 5.584V9.208C13.2 10.344 13.712 10.792 14.984 10.792H18.216C19.488 10.8 20 10.344 20 9.216Z" fill="#474747"/>
<path d="M20 18.216V14.984C20 13.712 19.488 13.2 18.216 13.2H14.984C13.712 13.2 13.2 13.712 13.2 14.984V18.216C13.2 19.488 13.712 20 14.984 20H18.216C19.488 20 20 19.488 20 18.216Z" fill="#474747"/>
<path d="M10.8 9.216V5.584C10.8 4.456 10.288 4 9.016 4H5.784C4.512 4 4 4.456 4 5.584V9.208C4 10.344 4.512 10.792 5.784 10.792H9.016C10.288 10.8 10.8 10.344 10.8 9.216Z" fill="#474747"/>
<path d="M10.8 18.216V14.984C10.8 13.712 10.288 13.2 9.016 13.2H5.784C4.512 13.2 4 13.712 4 14.984V18.216C4 19.488 4.512 20 5.784 20H9.016C10.288 20 10.8 19.488 10.8 18.216Z" fill="#474747"/>
</g>
<defs>
<clipPath id="clip0_491_3106">
<rect width="24" height="24" fill="white"/>
</clipPath>
</defs>
</svg>
