<svg width="144" height="144" viewBox="0 0 144 144" fill="none" xmlns="http://www.w3.org/2000/svg">
<rect opacity="0.2" width="144" height="144" rx="72" fill="#A6CFB8"/>
<rect x="20.1602" y="20.16" width="103.68" height="103.68" rx="51.84" fill="#A6CFB8"/>
<g clip-path="url(#clip0_576_239003)">
<path d="M81.848 62.5613C82.2842 62.1306 82.8666 61.8801 83.4793 61.8595C84.0919 61.8389 84.6899 62.0498 85.1541 62.4501C85.6182 62.8505 85.9146 63.411 85.9842 64.02C86.0538 64.6291 85.8914 65.242 85.5295 65.7367L85.2931 66.0103L69.8555 81.4479C69.4421 81.8609 68.8943 82.1119 68.3116 82.1553C67.7289 82.1986 67.15 82.0315 66.68 81.6843L66.4065 81.4479L58.6916 73.7291C58.2516 73.2949 57.9929 72.7098 57.9678 72.0921C57.9428 71.4744 58.1532 70.8703 58.5566 70.4018C58.96 69.9334 59.5262 69.6357 60.1408 69.5688C60.7553 69.5019 61.3723 69.6709 61.867 70.0416L62.1406 70.2781L68.1378 76.2694L81.848 62.5613Z" fill="#0D0C0F"/>
</g>
<defs>
<clipPath id="clip0_576_239003">
<rect width="56" height="56" fill="white" transform="translate(44 44)"/>
</clipPath>
</defs>
</svg>
